REM DIRINDEX 1\4,1\2\5,1\2\6,1\3\7,1\3\8
REM DIRNAME folder01,folder02,folder03,folder04,folder05,folder06,folder07,folder08
TITLE ""
FILE "079_Day40_Check2_Phrases.mp3" MP3
  TRACK 01 AUDIO
    TITLE "0:"
    INDEX 01 00:00:00
  TRACK 02 AUDIO
    TITLE "4:cjc124_2577"
    INDEX 01 00:00:33
  TRACK 03 AUDIO
    TITLE "0:"
    INDEX 01 00:01:56
  TRACK 04 AUDIO
    TITLE "5:cjc124_2578"
    INDEX 01 00:02:16
  TRACK 05 AUDIO
    TITLE "0:"
    INDEX 01 00:04:52
  TRACK 06 AUDIO
    TITLE "6:cjc124_2579"
    INDEX 01 00:04:68
  TRACK 07 AUDIO
    TITLE "0:"
    INDEX 01 00:07:05
  TRACK 08 AUDIO
    TITLE "5:cjc124_2580"
    INDEX 01 00:07:41
  TRACK 09 AUDIO
    TITLE "0:"
    INDEX 01 00:09:67
  TRACK 10 AUDIO
    TITLE "6:cjc124_2581"
    INDEX 01 00:10:06
  TRACK 11 AUDIO
    TITLE "0:"
    INDEX 01 00:12:44
  TRACK 12 AUDIO
    TITLE "5:cjc124_2582"
    INDEX 01 00:13:14
  TRACK 13 AUDIO
    TITLE "0:"
    INDEX 01 00:15:32
  TRACK 14 AUDIO
    TITLE "6:cjc124_2583"
    INDEX 01 00:15:46
  TRACK 15 AUDIO
    TITLE "0:"
    INDEX 01 00:17:74
  TRACK 16 AUDIO
    TITLE "5:cjc124_2584"
    INDEX 01 00:18:39
  TRACK 17 AUDIO
    TITLE "0:"
    INDEX 01 00:20:14
  TRACK 18 AUDIO
    TITLE "6:cjc124_2585"
    INDEX 01 00:20:39
  TRACK 19 AUDIO
    TITLE "0:"
    INDEX 01 00:22:34
  TRACK 20 AUDIO
    TITLE "5:cjc124_2586"
    INDEX 01 00:22:74
  TRACK 21 AUDIO
    TITLE "0:"
    INDEX 01 00:24:49
  TRACK 22 AUDIO
    TITLE "6:cjc124_2587"
    INDEX 01 00:25:09
  TRACK 23 AUDIO
    TITLE "0:"
    INDEX 01 00:27:04
  TRACK 24 AUDIO
    TITLE "5:cjc124_2588"
    INDEX 01 00:27:43
  TRACK 25 AUDIO
    TITLE "0:"
    INDEX 01 00:29:21
  TRACK 26 AUDIO
    TITLE "6:cjc124_2589"
    INDEX 01 00:29:40
  TRACK 27 AUDIO
    TITLE "0:"
    INDEX 01 00:31:39
  TRACK 28 AUDIO
    TITLE "5:cjc124_2590"
    INDEX 01 00:32:01
  TRACK 29 AUDIO
    TITLE "0:"
    INDEX 01 00:33:69
  TRACK 30 AUDIO
    TITLE "6:cjc124_2591"
    INDEX 01 00:34:12
  TRACK 31 AUDIO
    TITLE "0:"
    INDEX 01 00:36:11
  TRACK 32 AUDIO
    TITLE "5:cjc124_2592"
    INDEX 01 00:36:50
  TRACK 33 AUDIO
    TITLE "0:"
    INDEX 01 00:39:17
  TRACK 34 AUDIO
    TITLE "6:cjc124_2593"
    INDEX 01 00:39:33
  TRACK 35 AUDIO
    TITLE "0:"
    INDEX 01 00:41:34
  TRACK 36 AUDIO
    TITLE "5:cjc124_2594"
    INDEX 01 00:41:73
  TRACK 37 AUDIO
    TITLE "0:"
    INDEX 01 00:43:64
  TRACK 38 AUDIO
    TITLE "6:cjc124_2595"
    INDEX 01 00:44:11
  TRACK 39 AUDIO
    TITLE "0:"
    INDEX 01 00:45:69
  TRACK 40 AUDIO
    TITLE "5:cjc124_2596"
    INDEX 01 00:46:37
  TRACK 41 AUDIO
    TITLE "0:"
    INDEX 01 00:48:10
  TRACK 42 AUDIO
    TITLE "6:cjc124_2597"
    INDEX 01 00:48:26
  TRACK 43 AUDIO
    TITLE "0:"
    INDEX 01 00:49:59
  TRACK 44 AUDIO
    TITLE "5:cjc124_2598"
    INDEX 01 00:50:23
  TRACK 45 AUDIO
    TITLE "0:"
    INDEX 01 00:53:17
  TRACK 46 AUDIO
    TITLE "6:cjc124_2599"
    INDEX 01 00:53:43
  TRACK 47 AUDIO
    TITLE "0:"
    INDEX 01 00:56:49
  TRACK 48 AUDIO
    TITLE "5:cjc124_2600"
    INDEX 01 00:57:17
  TRACK 49 AUDIO
    TITLE "0:"
    INDEX 01 00:59:53
  TRACK 50 AUDIO
    TITLE "6:cjc124_2601"
    INDEX 01 00:59:67
  TRACK 51 AUDIO
    TITLE "0:"
    INDEX 01 01:02:28
  TRACK 52 AUDIO
    TITLE "5:cjc124_2602"
    INDEX 01 01:02:65
  TRACK 53 AUDIO
    TITLE "0:"
    INDEX 01 01:04:52
  TRACK 54 AUDIO
    TITLE "6:cjc124_2603"
    INDEX 01 01:05:05
  TRACK 55 AUDIO
    TITLE "0:"
    INDEX 01 01:07:31
  TRACK 56 AUDIO
    TITLE "5:cjc124_2604"
    INDEX 01 01:08:01
  TRACK 57 AUDIO
    TITLE "0:"
    INDEX 01 01:09:50
  TRACK 58 AUDIO
    TITLE "6:cjc124_2605"
    INDEX 01 01:09:67
  TRACK 59 AUDIO
    TITLE "0:"
    INDEX 01 01:11:62
  TRACK 60 AUDIO
    TITLE "5:cjc124_2606"
    INDEX 01 01:12:24
  TRACK 61 AUDIO
    TITLE "0:"
    INDEX 01 01:15:33
  TRACK 62 AUDIO
    TITLE "6:cjc124_2607"
    INDEX 01 01:15:50
  TRACK 63 AUDIO
    TITLE "0:"
    INDEX 01 01:18:21
  TRACK 64 AUDIO
    TITLE "5:cjc124_2608"
    INDEX 01 01:18:60
  TRACK 65 AUDIO
    TITLE "0:"
    INDEX 01 01:21:02
  TRACK 66 AUDIO
    TITLE "6:cjc124_2609"
    INDEX 01 01:21:18
  TRACK 67 AUDIO
    TITLE "0:"
    INDEX 01 01:23:30
